<svg width="94" height="112" viewBox="0 0 94 112" fill="none" xmlns="http://www.w3.org/2000/svg">
<g clip-path="url(#clip0_12:407)">
<path d="M47.5 102.667C57.515 102.667 66.935 99.0266 74.0649 92.3672L108.585 59.2526C109.27 58.5948 109.732 57.7632 109.914 56.8616C110.095 55.9601 109.988 55.0286 109.605 54.1836C109.223 53.3387 108.582 52.6176 107.763 52.1107C106.944 51.6037 105.983 51.3333 105 51.3332H88.4949L109.37 16.2679C109.893 15.3816 110.093 14.3608 109.941 13.3591C109.789 12.3574 109.292 11.4289 108.526 10.7132C107.76 9.99752 106.765 9.53338 105.692 9.39056C104.619 9.24774 103.525 9.43396 102.575 9.92123L67.025 28.3546L69.905 14.9192C70.1082 13.9685 69.9891 12.9823 69.5642 12.0976C69.1394 11.2129 68.4299 10.4737 67.5342 9.98258C66.6386 9.4915 65.6014 9.27295 64.5666 9.3573C63.5318 9.44164 62.5508 9.82469 61.76 10.4532L20.98 42.9192C6.35995 56.5646 6.35995 78.7686 20.98 92.4139C24.4545 95.6746 28.5875 98.2596 33.1396 100.02C37.6918 101.779 42.5727 102.679 47.5 102.667ZM27.76 49.7699L57.27 26.2919L56.03 32.0786L55.1 36.4186V36.4232L52.9799 46.3119L92.13 26.0119L75.63 53.7319L75.625 53.7366L71.505 60.6666H93.16L66.945 85.8152C61.75 90.6639 54.845 93.3332 47.5 93.3332C40.155 93.3332 33.245 90.6639 28.05 85.8152C17.335 75.8099 17.335 59.5232 27.76 49.7699Z" fill="#181818" fill-opacity="0.78"/>
<path d="M47.5 83.9998C51.4818 84.0135 55.3491 82.7566 58.4605 80.4374C61.5719 78.1182 63.7405 74.876 64.6066 71.2486C65.4727 67.6212 64.9844 63.8264 63.2226 60.4935C61.4608 57.1607 58.5313 54.49 54.92 52.9244C54.945 53.1718 55 53.4144 55 53.6664C55 55.523 54.2098 57.3034 52.8033 58.6162C51.3968 59.9289 49.4891 60.6664 47.5 60.6664C45.5109 60.6664 43.6032 59.9289 42.1967 58.6162C40.7902 57.3034 40 55.523 40 53.6664C40 53.4144 40.055 53.1718 40.08 52.9244C36.4687 54.49 33.5392 57.1607 31.7774 60.4935C30.0156 63.8264 29.5272 67.6212 30.3934 71.2486C31.2595 74.876 33.4281 78.1182 36.5395 80.4374C39.6509 82.7566 43.5181 84.0135 47.5 83.9998Z" fill="#181818" fill-opacity="0.78"/>
</g>
<defs>
<clipPath id="clip0_12:407">
<rect width="94" height="112" fill="white"/>
</clipPath>
</defs>
</svg>
