<svg width="21" height="20" viewBox="0 0 21 20" fill="none" xmlns="http://www.w3.org/2000/svg">
<path fill-rule="evenodd" clip-rule="evenodd" d="M2 0C0.89543 0 0 0.895431 0 2V18C0 19.1046 0.895431 20 2 20H19C20.1046 20 21 19.1046 21 18V2C21 0.895431 20.1046 0 19 0H2ZM16.5155 7.00643C16.3722 7.11553 16.2872 7.28566 16.289 7.46578C16.2893 7.49173 16.2894 7.5177 16.2894 7.54369C16.2894 11.2977 13.2893 15.6262 7.80295 15.6262C6.37639 15.6262 5.03345 15.2889 3.85389 14.6959C3.70297 14.6201 3.77336 14.3897 3.94228 14.3897C4.51266 14.3897 5.06449 14.314 5.5873 14.1727C6.31159 13.9768 6.10483 12.8415 5.56752 12.3178C5.38296 12.1379 5.22327 11.9348 5.09379 11.7135C4.96577 11.4947 5.16802 11.2519 5.42151 11.2519C5.61204 11.2519 5.62669 10.9869 5.45499 10.9043C4.48209 10.4362 3.81471 9.47559 3.81471 8.36677C3.81471 8.35033 3.83208 8.34002 3.84671 8.34754C3.96376 8.40772 4.08558 8.46075 4.21147 8.50595C4.46795 8.59804 4.61311 8.25093 4.44346 8.03767C4.06407 7.56077 3.83912 6.96612 3.83912 6.32193C3.83912 5.57985 4.74246 5.47314 5.31835 5.94116C6.54118 6.93495 8.06391 7.60351 9.7396 7.80691C10.0635 7.84623 10.3134 7.54071 10.3134 7.21446C10.3134 5.64576 11.649 4.37389 13.2962 4.37389C14.0279 4.37389 14.6994 4.62476 15.2187 5.04103C15.3861 5.17527 15.6005 5.24947 15.8089 5.19838C16.1204 5.12202 16.4222 5.02243 16.712 4.90171C16.949 4.803 17.1888 5.02113 17.0463 5.23468C16.9858 5.32539 16.92 5.41262 16.8493 5.49596C16.6998 5.67247 16.8573 6.01357 17.0796 5.94958C17.285 5.89046 17.4498 6.12573 17.3057 6.28367C17.0659 6.5467 16.8012 6.78897 16.5155 7.00643Z" fill="#162400"/>
</svg>
