<svg width="24" height="23" viewBox="0 0 24 23" fill="none" xmlns="http://www.w3.org/2000/svg">
<path d="M16 1.91669H8C4.691 1.91669 2 4.49556 2 7.66669V20.125C2 20.3792 2.10536 20.6229 2.29289 20.8027C2.48043 20.9824 2.73478 21.0834 3 21.0834H16C19.309 21.0834 22 18.5045 22 15.3334V7.66669C22 4.49556 19.309 1.91669 16 1.91669ZM20 15.3334C20 17.4474 18.206 19.1667 16 19.1667H4V7.66669C4 5.5526 5.794 3.83335 8 3.83335H16C18.206 3.83335 20 5.5526 20 7.66669V15.3334Z" fill="white"/>
<path d="M7 14.3625V16.2782H8.999L14.528 10.9863L12.53 9.07156L7 14.3625ZM15.47 10.0836L13.472 8.1669L14.995 6.70831L16.995 8.62402L15.47 10.0836Z" fill="white"/>
</svg>
