<svg width="77" height="78" viewBox="0 0 77 78" fill="none" xmlns="http://www.w3.org/2000/svg">
<rect width="77" height="78" rx="11" fill="#305EE8"/>
<path d="M38.5 23.4166C29.0802 23.4166 21.4167 31.0802 21.4167 40.5C21.4167 49.9197 29.0802 57.5833 38.5 57.5833C47.9197 57.5833 55.5833 49.9197 55.5833 40.5C55.5833 31.0802 47.9197 23.4166 38.5 23.4166ZM38.5 54.1666C30.9645 54.1666 24.8333 48.0354 24.8333 40.5C24.8333 32.9645 30.9645 26.8333 38.5 26.8333C46.0354 26.8333 52.1667 32.9645 52.1667 40.5C52.1667 48.0354 46.0354 54.1666 38.5 54.1666Z" fill="white"/>
<path d="M40.2083 31.9584H36.7917V42.2084H47.0417V38.7917H40.2083V31.9584Z" fill="white"/>
</svg>
