<svg width="98" height="106" viewBox="0 0 98 106" fill="none" xmlns="http://www.w3.org/2000/svg">
<g clip-path="url(#clip0_12:400)">
<path d="M27.0833 8.83337C21.1087 8.83337 16.25 12.7951 16.25 17.6667V70.6667C16.25 75.5383 21.1087 79.5 27.0833 79.5H46.5075L65 94.5785L83.4925 79.5H102.917C108.891 79.5 113.75 75.5383 113.75 70.6667V17.6667C113.75 12.7951 108.891 8.83337 102.917 8.83337H27.0833ZM102.917 70.6667H79.0075L65 82.0882L50.9925 70.6667H27.0833V17.6667H102.917V70.6667Z" fill="#181818" fill-opacity="0.78"/>
<path d="M37.9167 30.9166H92.0833V39.75H37.9167V30.9166ZM37.9167 48.5833H75.8333V57.4166H37.9167V48.5833Z" fill="#181818" fill-opacity="0.78"/>
</g>
<defs>
<clipPath id="clip0_12:400">
<rect width="98" height="106" fill="white"/>
</clipPath>
</defs>
</svg>
