<svg width="79" height="118" viewBox="0 0 79 118" fill="none" xmlns="http://www.w3.org/2000/svg">
<g clip-path="url(#clip0_12:409)">
<path d="M59 9.83337C31.8895 9.83337 9.83337 31.8895 9.83337 59C9.83337 86.1105 31.8895 108.167 59 108.167C86.1105 108.167 108.167 86.1105 108.167 59C108.167 31.8895 86.1105 9.83337 59 9.83337ZM59 98.3334C37.3126 98.3334 19.6667 80.6875 19.6667 59C19.6667 37.3126 37.3126 19.6667 59 19.6667C80.6875 19.6667 98.3334 37.3126 98.3334 59C98.3334 80.6875 80.6875 98.3334 59 98.3334Z" fill="#181818" fill-opacity="0.78"/>
<path d="M41.7916 59C45.8647 59 49.1666 55.6981 49.1666 51.625C49.1666 47.5519 45.8647 44.25 41.7916 44.25C37.7185 44.25 34.4166 47.5519 34.4166 51.625C34.4166 55.6981 37.7185 59 41.7916 59Z" fill="#181818" fill-opacity="0.78"/>
<path d="M76.174 58.9312C80.2281 58.9312 83.5145 55.6447 83.5145 51.5906C83.5145 47.5365 80.2281 44.25 76.174 44.25C72.1199 44.25 68.8334 47.5365 68.8334 51.5906C68.8334 55.6447 72.1199 58.9312 76.174 58.9312Z" fill="#181818" fill-opacity="0.78"/>
<path d="M59 88.5C78.6666 88.5 83.5833 68.8334 83.5833 68.8334H34.4166C34.4166 68.8334 39.3333 88.5 59 88.5Z" fill="#181818" fill-opacity="0.78"/>
</g>
<defs>
<clipPath id="clip0_12:409">
<rect width="79" height="118" fill="white"/>
</clipPath>
</defs>
</svg>
