<svg width="21" height="21" viewBox="0 0 21 21" fill="none" xmlns="http://www.w3.org/2000/svg">
<path d="M18.6 0.600006H2.39998C1.40548 0.600006 0.599976 1.40551 0.599976 2.40001V18.6C0.599976 19.5945 1.40548 20.4 2.39998 20.4H18.6C19.5945 20.4 20.4 19.5945 20.4 18.6V2.40001C20.4 1.40551 19.5936 0.600006 18.6 0.600006ZM17.4201 9.1266C17.3031 9.1374 17.1852 9.14461 17.0664 9.14461C15.7209 9.14461 14.5383 8.4534 13.8498 7.4067C13.8498 10.1508 13.8498 13.2738 13.8498 13.326C13.8498 15.7425 11.8905 17.7009 9.47488 17.7009C7.05928 17.7 5.09998 15.7407 5.09998 13.3251C5.09998 10.9086 7.05928 8.9502 9.47488 8.9502C9.56668 8.9502 9.65578 8.9583 9.74488 8.96371V11.1201C9.65488 11.1093 9.56758 11.0931 9.47488 11.0931C8.24188 11.0931 7.24198 12.093 7.24198 13.326C7.24198 14.559 8.24098 15.5589 9.47488 15.5589C10.7088 15.5589 11.7978 14.5869 11.7978 13.3539C11.7978 13.3044 11.8194 3.30091 11.8194 3.30091H13.8795C14.073 5.14321 15.5607 6.59761 17.4201 6.73081V9.1266Z" fill="#162400"/>
</svg>
