<svg width="83" height="105" viewBox="0 0 83 105" fill="none" xmlns="http://www.w3.org/2000/svg">
<g clip-path="url(#clip0_12:406)">
<path d="M97.677 23.1481L84.1815 10.0319C83.7643 9.62482 83.2685 9.302 82.7225 9.082C82.1764 8.862 81.5911 8.74917 81 8.75H27C26.409 8.74917 25.8236 8.862 25.2776 9.082C24.7316 9.302 24.2357 9.62482 23.8185 10.0319L10.323 23.1481C9.90257 23.5536 9.56912 24.0362 9.34201 24.5679C9.1149 25.0996 8.99865 25.6699 9.00001 26.2456V83.125C9.00001 87.9506 13.0365 91.875 18 91.875H90C94.9635 91.875 99 87.9506 99 83.125V26.2456C99.0014 25.6699 98.8851 25.0996 98.658 24.5679C98.4309 24.0362 98.0975 23.5536 97.677 23.1481ZM28.863 17.5H79.137L83.6325 21.8706H24.3675L28.863 17.5ZM18 83.125V30.6206H90L90.009 83.125H18Z" fill="#181818" fill-opacity="0.78"/>
<path d="M67.5 52.5H40.5V43.75H31.5V61.25H76.5V43.75H67.5V52.5Z" fill="#181818" fill-opacity="0.78"/>
</g>
<defs>
<clipPath id="clip0_12:406">
<rect width="83" height="105" fill="white"/>
</clipPath>
</defs>
</svg>
