<svg width="21" height="21" viewBox="0 0 21 21" fill="none" xmlns="http://www.w3.org/2000/svg">
<path d="M18.6 0.600006H2.39998C1.40548 0.600006 0.599976 1.40551 0.599976 2.40001V18.6C0.599976 19.5945 1.40548 20.4 2.39998 20.4H18.6C19.5945 20.4 20.4 19.5945 20.4 18.6V2.40001C20.4 1.40551 19.5945 0.600006 18.6 0.600006ZM16.2249 14.0703L14.5437 14.0937C14.5437 14.0937 14.181 14.1648 13.7067 13.8372C13.0776 13.4052 12.4845 12.2811 12.0219 12.4269C11.553 12.5763 11.5674 13.5879 11.5674 13.5879C11.5674 13.5879 11.571 13.7661 11.4639 13.8822C11.3478 14.0073 11.1201 13.9947 11.1201 13.9947H10.3668C10.3668 13.9947 8.70537 14.1324 7.24108 12.606C5.64628 10.9419 4.23688 7.6578 4.23688 7.6578C4.23688 7.6578 4.15408 7.45081 4.24228 7.34461C4.34218 7.22761 4.61128 7.224 4.61128 7.224L6.41128 7.21501C6.41128 7.21501 6.58048 7.2447 6.70288 7.3347C6.80278 7.4085 6.85948 7.5471 6.85948 7.5471C6.85948 7.5471 7.15018 8.2842 7.53628 8.952C8.28868 10.2534 8.63788 10.5387 8.89348 10.3992C9.26608 10.1958 9.15448 8.5596 9.15448 8.5596C9.15448 8.5596 9.16168 7.96561 8.96728 7.70101C8.81608 7.49491 8.53168 7.43371 8.40748 7.41841C8.30578 7.40491 8.47138 7.16911 8.68738 7.0629C9.01138 6.9045 9.58378 6.8955 10.2597 6.9018C10.7862 6.90721 10.9383 6.93961 11.1435 6.99001C11.7645 7.14031 11.5539 7.71991 11.5539 9.1104C11.5539 9.55591 11.4738 10.1823 11.7942 10.3884C11.9328 10.4775 12.2703 10.4019 13.1118 8.96731C13.5123 8.2869 13.812 7.4877 13.812 7.4877C13.812 7.4877 13.8777 7.34551 13.9794 7.28431C14.0838 7.2213 14.2242 7.2411 14.2242 7.2411L16.1187 7.22941C16.1187 7.22941 16.6875 7.161 16.7802 7.4193C16.8774 7.6893 16.5678 8.32021 15.7938 9.3525C14.523 11.0481 14.3817 10.8906 15.4374 11.8716C16.4454 12.8085 16.6533 13.2639 16.6884 13.3215C17.1051 14.0154 16.2249 14.0703 16.2249 14.0703Z" fill="#162400"/>
</svg>
