<svg width="24" height="24" viewBox="0 0 24 24" fill="none" xmlns="http://www.w3.org/2000/svg">
<path d="M10.998 16L15.998 12L10.998 8V11H1.99805V13H10.998V16Z" fill="white"/>
<path d="M12.9988 2.999C11.8163 2.99572 10.6449 3.22711 9.55251 3.67976C8.4601 4.13241 7.46837 4.79733 6.63477 5.636L8.04877 7.05C9.37077 5.728 11.1288 4.999 12.9988 4.999C14.8688 4.999 16.6268 5.728 17.9488 7.05C19.2708 8.372 19.9998 10.13 19.9998 12C19.9998 13.87 19.2708 15.628 17.9488 16.95C16.6268 18.272 14.8688 19.001 12.9988 19.001C11.1288 19.001 9.37077 18.272 8.04877 16.95L6.63477 18.364C8.33377 20.064 10.5938 21.001 12.9988 21.001C15.4038 21.001 17.6638 20.064 19.3628 18.364C21.0628 16.665 21.9998 14.405 21.9998 12C21.9998 9.595 21.0628 7.335 19.3628 5.636C18.5292 4.79733 17.5374 4.13241 16.445 3.67976C15.3526 3.22711 14.1812 2.99572 12.9988 2.999V2.999Z" fill="white"/>
</svg>
