<svg width="21" height="21" viewBox="0 0 21 21" fill="none" xmlns="http://www.w3.org/2000/svg">
<path d="M20.625 19.4265C20.625 20.4529 19.4535 21.039 18.6321 20.4236L16.5738 18.8816C16.29 18.669 15.8981 18.9372 15.9934 19.2787V19.2787C16.0595 19.5155 15.8815 19.75 15.6357 19.75H2.375C1.27043 19.75 0.375 18.8546 0.375 17.75V2.25C0.375 1.14543 1.27043 0.25 2.375 0.25H18.625C19.7296 0.25 20.625 1.14543 20.625 2.25V19.4265ZM15.4913 6.54532C15.3869 6.36788 15.243 6.22124 15.0688 6.11154C14.641 5.84226 13.7249 5.33636 12.661 5.17526C12.4501 5.14332 12.2482 5.25931 12.1512 5.44926V5.44926C12.0456 5.65593 11.8182 5.76877 11.5885 5.73572C11.2099 5.68126 10.8361 5.645 10.5 5.645C10.158 5.645 9.77883 5.68074 9.40844 5.73455C9.18083 5.76762 8.95474 5.65664 8.85013 5.45181V5.45181C8.75272 5.26108 8.54812 5.14687 8.33674 5.18131C7.23304 5.36112 6.33891 5.85317 5.9242 6.11502C5.75433 6.22227 5.61464 6.36581 5.51251 6.53881C5.14532 7.16079 4.25479 8.91837 3.94526 11.7692C3.88703 12.3055 4.06611 12.8529 4.49417 13.1812C5.68329 14.0935 7.07122 14.2834 7.5845 14.323C7.71377 14.3329 7.83517 14.273 7.91426 14.1703V14.1703C8.08917 13.9431 7.98615 13.6114 7.72635 13.4902C7.47971 13.375 7.24402 13.2379 7.0067 13.0699C6.94992 13.0298 6.92876 12.9559 6.954 12.8911V12.8911C6.98588 12.8092 7.0795 12.7706 7.16093 12.8036C7.95016 13.1236 8.96662 13.315 10.5 13.315C12.0334 13.315 13.0498 13.1236 13.8391 12.8036C13.9205 12.7706 14.0141 12.8092 14.046 12.8911V12.8911C14.0712 12.9559 14.0501 13.0298 13.9933 13.0699C13.756 13.2379 13.5203 13.375 13.2737 13.4902C13.0138 13.6114 12.9108 13.9431 13.0857 14.1703V14.1703C13.1648 14.273 13.2862 14.3329 13.4155 14.323C13.9288 14.2834 15.3167 14.0935 16.5058 13.1812C16.9339 12.8529 17.113 12.3055 17.0547 11.7692C16.7463 8.92826 15.8609 7.173 15.4913 6.54532ZM8.25 11.495C7.665 11.495 7.1925 10.9208 7.1925 10.2167C7.1925 9.5125 7.665 8.93833 8.25 8.93833C8.835 8.93833 9.3075 9.5125 9.3075 10.2167C9.3075 10.9208 8.835 11.495 8.25 11.495ZM12.75 11.495C12.165 11.495 11.6925 10.9208 11.6925 10.2167C11.6925 9.5125 12.165 8.93833 12.75 8.93833C13.335 8.93833 13.8075 9.5125 13.8075 10.2167C13.8075 10.9208 13.335 11.495 12.75 11.495Z" fill="#162400"/>
</svg>
