<svg width="116" height="116" viewBox="0 0 116 116" fill="none" xmlns="http://www.w3.org/2000/svg">
<path d="M58.0001 9.6665C31.3491 9.6665 9.66675 31.3488 9.66675 57.9998C9.66675 84.6508 31.3491 106.333 58.0001 106.333C84.6511 106.333 106.333 84.6508 106.333 57.9998C106.333 31.3488 84.6511 9.6665 58.0001 9.6665ZM58.0001 96.6665C36.6803 96.6665 19.3334 79.3197 19.3334 57.9998C19.3334 36.68 36.6803 19.3332 58.0001 19.3332C79.3199 19.3332 96.6667 36.68 96.6667 57.9998C96.6667 79.3197 79.3199 96.6665 58.0001 96.6665Z" fill="#969696"/>
<path d="M41.0833 58C45.0873 58 48.3333 54.7541 48.3333 50.75C48.3333 46.7459 45.0873 43.5 41.0833 43.5C37.0792 43.5 33.8333 46.7459 33.8333 50.75C33.8333 54.7541 37.0792 58 41.0833 58Z" fill="#969696"/>
<path d="M74.8829 57.9323C78.8683 57.9323 82.0991 54.7015 82.0991 50.7162C82.0991 46.7308 78.8683 43.5 74.8829 43.5C70.8975 43.5 67.6667 46.7308 67.6667 50.7162C67.6667 54.7015 70.8975 57.9323 74.8829 57.9323Z" fill="#969696"/>
<path d="M58 87.0002C66.0081 87.0002 72.5 81.5903 72.5 74.9168C72.5 68.2434 66.0081 62.8335 58 62.8335C49.9919 62.8335 43.5 68.2434 43.5 74.9168C43.5 81.5903 49.9919 87.0002 58 87.0002Z" fill="#969696"/>
</svg>
