<svg width="31" height="32" viewBox="0 0 31 32" fill="none" xmlns="http://www.w3.org/2000/svg">
<path d="M30.125 29.7087C30.125 31.2007 28.4089 32.0399 27.2313 31.1238L24.3099 28.851C23.8921 28.5259 23.3007 28.9186 23.4381 29.4298C23.5324 29.7805 23.2682 30.125 22.9052 30.125H2.875C1.77043 30.125 0.875 29.2296 0.875 28.125V2.875C0.875 1.77043 1.77043 0.875 2.875 0.875H28.125C29.2296 0.875 30.125 1.77043 30.125 2.875V29.7087ZM22.6344 10.1877C22.5299 10.0106 22.3895 9.86238 22.2192 9.74704C21.6684 9.37389 20.2745 8.52649 18.6358 8.26515C18.3238 8.21539 18.0249 8.38959 17.8854 8.67312C17.7334 8.98221 17.3955 9.15155 17.0548 9.101C16.5139 9.02074 15.9803 8.9675 15.5 8.9675C15.0112 8.9675 14.47 9.01997 13.9404 9.09926C13.6029 9.14979 13.2671 8.9833 13.1165 8.67707C12.9765 8.39237 12.6735 8.22089 12.3608 8.27442C10.6607 8.56542 9.30694 9.38747 8.77399 9.75036C8.60819 9.86325 8.47141 10.0087 8.36934 10.1814C7.88042 11.0084 6.4098 13.8407 5.98927 18.5973C5.94304 19.1202 6.11373 19.6487 6.50383 19.9999C8.26966 21.5898 10.4632 21.9159 11.2685 21.9828C11.4669 21.9993 11.6538 21.9055 11.7724 21.7456C12.0247 21.4052 11.8713 20.9186 11.4902 20.7336C11.1345 20.5609 10.7945 20.3552 10.4521 20.1034C10.3707 20.0436 10.3405 19.9367 10.3759 19.8421C10.4227 19.7174 10.5654 19.6588 10.6883 19.7103C11.8267 20.1872 13.2925 20.4725 15.5 20.4725C17.7075 20.4725 19.1733 20.1872 20.3117 19.7103C20.4346 19.6588 20.5773 19.7174 20.6241 19.8421C20.6595 19.9367 20.6293 20.0436 20.5479 20.1034C20.2055 20.3552 19.8655 20.5609 19.5098 20.7336C19.1287 20.9186 18.9753 21.4052 19.2276 21.7456C19.3462 21.9055 19.5331 21.9993 19.7315 21.9828C20.5368 21.9159 22.7303 21.5898 24.4962 19.9999C24.8863 19.6487 25.057 19.1202 25.0107 18.5973C24.5913 13.8528 23.1271 11.0229 22.6344 10.1877ZM12.25 17.7425C11.405 17.7425 10.7225 16.8812 10.7225 15.825C10.7225 14.7687 11.405 13.9075 12.25 13.9075C13.095 13.9075 13.7775 14.7687 13.7775 15.825C13.7775 16.8812 13.095 17.7425 12.25 17.7425ZM18.75 17.7425C17.905 17.7425 17.2225 16.8812 17.2225 15.825C17.2225 14.7687 17.905 13.9075 18.75 13.9075C19.595 13.9075 20.2775 14.7687 20.2775 15.825C20.2775 16.8812 19.595 17.7425 18.75 17.7425Z" fill="#162400"/>
</svg>
