<svg width="31" height="31" viewBox="0 0 31 31" fill="none" xmlns="http://www.w3.org/2000/svg">
<g opacity="0.3">
<path d="M15.4677 28.4166H15.5C20.4845 28.4166 24.5417 24.3608 24.5417 19.375V11.625C24.5417 6.66369 20.5026 2.6169 15.5245 2.58331H15.447C10.487 2.61173 6.45833 6.6611 6.45833 11.625V19.375C6.45833 24.3608 10.5 28.4166 15.4677 28.4166ZM9.04167 11.625C9.04404 9.9162 9.72257 8.27781 10.929 7.06771C12.1355 5.85761 13.7719 5.17415 15.4806 5.16665C19.0521 5.1744 21.9583 8.07161 21.9583 11.625V19.375C21.9583 22.9361 19.0611 25.8333 15.5 25.8333H15.4677C11.8653 25.8333 9.04167 22.9968 9.04167 19.375V11.625Z" fill="white"/>
<path d="M14.2083 7.75H16.7917V15.5H14.2083V7.75Z" fill="white"/>
</g>
</svg>
