<svg width="77" height="78" viewBox="0 0 77 78" fill="none" xmlns="http://www.w3.org/2000/svg">
<rect width="77" height="78" rx="11" fill="#305EE8"/>
<path d="M55.0811 27.0405L49.9578 21.9172C49.7994 21.7582 49.6112 21.6322 49.4039 21.5463C49.1966 21.4604 48.9744 21.4163 48.75 21.4166H28.25C28.0256 21.4163 27.8034 21.4604 27.5961 21.5463C27.3888 21.6322 27.2006 21.7582 27.0422 21.9172L21.9189 27.0405C21.7593 27.1988 21.6327 27.3872 21.5465 27.5948C21.4603 27.8025 21.4162 28.0251 21.4167 28.25V50.4583C21.4167 52.3426 22.949 53.875 24.8333 53.875H52.1667C54.051 53.875 55.5833 52.3426 55.5833 50.4583V28.25C55.5838 28.0251 55.5397 27.8025 55.4535 27.5948C55.3673 27.3872 55.2407 27.1988 55.0811 27.0405ZM28.9572 24.8333H48.0427L49.7511 26.5416H27.2489L28.9572 24.8333ZM24.8333 50.4583V29.9583H52.1667L52.1701 50.4583H24.8333Z" fill="white"/>
<path d="M41.9167 33.375H35.0833V38.5H29.9583L38.5 47.0417L47.0417 38.5H41.9167V33.375Z" fill="white"/>
</svg>
