<svg width="77" height="78" viewBox="0 0 77 78" fill="none" xmlns="http://www.w3.org/2000/svg">
<rect width="77" height="78" rx="11" fill="#305EE8"/>
<path d="M38.5 21.4166C36.8106 21.4166 35.1592 21.9176 33.7545 22.8562C32.3498 23.7947 31.255 25.1288 30.6085 26.6895C29.962 28.2503 29.7929 29.9678 30.1225 31.6247C30.452 33.2816 31.2656 34.8036 32.4601 35.9982C33.6547 37.1927 35.1767 38.0063 36.8336 38.3358C38.4905 38.6654 40.208 38.4963 41.7688 37.8498C43.3295 37.2033 44.6636 36.1085 45.6021 34.7038C46.5407 33.2991 47.0417 31.6477 47.0417 29.9583C47.0417 27.6929 46.1417 25.5203 44.5399 23.9184C42.938 22.3165 40.7654 21.4166 38.5 21.4166V21.4166ZM38.5 35.0833C37.4864 35.0833 36.4955 34.7827 35.6527 34.2196C34.8099 33.6564 34.153 32.856 33.7651 31.9195C33.3772 30.9831 33.2757 29.9526 33.4735 28.9585C33.6712 27.9643 34.1593 27.0511 34.8761 26.3344C35.5928 25.6176 36.506 25.1295 37.5002 24.9318C38.4943 24.734 39.5248 24.8355 40.4613 25.2234C41.3977 25.6113 42.1981 26.2682 42.7613 27.111C43.3244 27.9538 43.625 28.9447 43.625 29.9583C43.625 31.3175 43.085 32.6211 42.1239 33.5822C41.1628 34.5433 39.8592 35.0833 38.5 35.0833V35.0833ZM53.875 53.875V52.1666C53.875 48.9951 52.6151 45.9534 50.3725 43.7108C48.1299 41.4682 45.0882 40.2083 41.9167 40.2083H35.0833C31.9118 40.2083 28.8701 41.4682 26.6275 43.7108C24.3849 45.9534 23.125 48.9951 23.125 52.1666V53.875H26.5417V52.1666C26.5417 49.9012 27.4416 47.7286 29.0435 46.1268C30.6453 44.5249 32.8179 43.625 35.0833 43.625H41.9167C44.1821 43.625 46.3547 44.5249 47.9565 46.1268C49.5584 47.7286 50.4583 49.9012 50.4583 52.1666V53.875H53.875Z" fill="white"/>
</svg>
