<svg width="24" height="24" viewBox="0 0 24 24" fill="none" xmlns="http://www.w3.org/2000/svg">
<g opacity="0.74">
<path d="M11.998 17L16.184 12.814C16.4427 12.5587 16.648 12.2545 16.7882 11.9191C16.9284 11.5838 17.0006 11.224 17.0006 10.8605C17.0006 10.497 16.9284 10.1372 16.7882 9.80185C16.648 9.46651 16.4427 9.16234 16.184 8.907C15.9286 8.64846 15.6244 8.44319 15.2891 8.3031C14.9537 8.163 14.5939 8.09086 14.2305 8.09086C13.8671 8.09086 13.5073 8.163 13.1719 8.3031C12.8366 8.44319 12.5324 8.64846 12.277 8.907L11.999 9.186L11.72 8.907C11.4646 8.64846 11.1604 8.44319 10.8251 8.3031C10.4897 8.163 10.1299 8.09086 9.7665 8.09086C9.40308 8.09086 9.04327 8.163 8.70793 8.3031C8.3726 8.44319 8.06841 8.64846 7.813 8.907C7.55446 9.16241 7.34919 9.4666 7.2091 9.80193C7.069 10.1373 6.99686 10.4971 6.99686 10.8605C6.99686 11.2239 7.069 11.5837 7.2091 11.9191C7.34919 12.2544 7.55446 12.5586 7.813 12.814L11.998 17Z" fill="white"/>
<path d="M21 4C21 3.73478 20.8946 3.48043 20.7071 3.29289C20.5196 3.10536 20.2652 3 20 3H4C3.73478 3 3.48043 3.10536 3.29289 3.29289C3.10536 3.48043 3 3.73478 3 4V20C3 20.2652 3.10536 20.5196 3.29289 20.7071C3.48043 20.8946 3.73478 21 4 21H20C20.2652 21 20.5196 20.8946 20.7071 20.7071C20.8946 20.5196 21 20.2652 21 20V4ZM19 19H5V5H19V19Z" fill="white"/>
</g>
</svg>
