<svg width="29" height="28" viewBox="0 0 29 28" fill="none" xmlns="http://www.w3.org/2000/svg">
<path d="M26.2 0.0666504H2.79995C1.36345 0.0666504 0.199951 1.20032 0.199951 2.59998V25.4C0.199951 26.7996 1.36345 27.9333 2.79995 27.9333H26.2C27.6365 27.9333 28.8 26.7996 28.8 25.4V2.59998C28.8 1.20032 27.6365 0.0666504 26.2 0.0666504ZM22.7693 19.0248L20.3409 19.0578C20.3409 19.0578 19.817 19.1578 19.1319 18.6968C18.2232 18.0888 17.3665 16.5067 16.6983 16.7119C16.021 16.9222 16.0418 18.3459 16.0418 18.3459C16.0418 18.3459 16.047 18.5967 15.8923 18.7601C15.7246 18.9362 15.3957 18.9184 15.3957 18.9184H14.3076C14.3076 18.9184 11.9078 19.1122 9.79265 16.964C7.48905 14.6219 5.45325 9.99985 5.45325 9.99985C5.45325 9.99985 5.33365 9.70852 5.46105 9.55905C5.60535 9.39438 5.99405 9.38932 5.99405 9.38932L8.59405 9.37665C8.59405 9.37665 8.83845 9.41845 9.01525 9.54512C9.15955 9.64898 9.24145 9.84405 9.24145 9.84405C9.24145 9.84405 9.66135 10.8814 10.2191 11.8213C11.3059 13.6529 11.8103 14.0544 12.1795 13.8581C12.7177 13.5718 12.5565 11.269 12.5565 11.269C12.5565 11.269 12.5669 10.4331 12.2861 10.0606C12.0677 9.77058 11.6569 9.68445 11.4775 9.66292C11.3306 9.64392 11.5698 9.31205 11.8818 9.16258C12.3498 8.93965 13.1766 8.92698 14.1529 8.93585C14.9134 8.94345 15.1331 8.98905 15.4295 9.05998C16.3265 9.27152 16.0223 10.0872 16.0223 12.0442C16.0223 12.6712 15.9066 13.5528 16.3694 13.8429C16.5696 13.9683 17.0571 13.8619 18.2726 11.8428C18.8511 10.8852 19.284 9.76045 19.284 9.76045C19.284 9.76045 19.3789 9.56032 19.5258 9.47418C19.6766 9.38552 19.8794 9.41338 19.8794 9.41338L22.6159 9.39692C22.6159 9.39692 23.4375 9.30065 23.5714 9.66418C23.7118 10.0442 23.2646 10.9321 22.1466 12.385C20.311 14.7714 20.1069 14.5497 21.6318 15.9304C23.0878 17.249 23.3881 17.8899 23.4388 17.971C24.0407 18.9476 22.7693 19.0248 22.7693 19.0248Z" fill="#162400"/>
</svg>
